<svg xmlns="http://www.w3.org/2000/svg" xmlns:xlink="http://www.w3.org/1999/xlink" viewBox="0 0 100 125" version="1.1" x="0px" y="0px"><title>Artboard 1 Copy 15</title><desc>Created with Sketch.</desc><g stroke="none" stroke-width="1" fill="none" fill-rule="evenodd"><g fill="#fff"><path d="M76.01775,72.48275 C76.99475,73.45975 76.99475,75.04175 76.01775,76.01775 C75.52975,76.50575 74.88975,76.75075 74.24975,76.75075 C73.61075,76.75075 72.97075,76.50575 72.48275,76.01775 L49.87475,53.41075 L27.26775,76.01775 C26.77975,76.50575 26.13975,76.75075 25.49975,76.75075 C24.86075,76.75075 24.22075,76.50575 23.73275,76.01775 C22.75575,75.04175 22.75575,73.45975 23.73275,72.48275 L46.33975,49.87575 L23.73275,27.26775 C22.75575,26.29175 22.75575,24.70975 23.73275,23.73275 C24.70875,22.75575 26.29075,22.75575 27.26775,23.73275 L49.87475,46.33975 L72.48275,23.73275 C73.45875,22.75575 75.04075,22.75575 76.01775,23.73275 C76.99475,24.70975 76.99475,26.29175 76.01775,27.26775 L53.41075,49.87575 L76.01775,72.48275 Z"/></g></g></svg>