<svg width="384" height="489" viewBox="0 0 384 489" fill="none" xmlns="http://www.w3.org/2000/svg">
<rect x="1" y="429" width="374" height="60" rx="12" fill="#0555FF" fill-opacity="0.08"/>
<path opacity="0.8" d="M18.044 465.948H19.124V462.648C19.448 463.14 20.18 463.644 21.116 463.644C22.856 463.644 24.068 462.252 24.068 460.5C24.068 458.748 22.892 457.356 21.188 457.356C20.3 457.356 19.52 457.8 19.124 458.328L18.992 457.5H18.044V465.948ZM20.972 462.66C19.844 462.66 19.004 461.76 19.004 460.5C19.004 459.24 19.844 458.34 20.984 458.34C22.124 458.34 22.964 459.276 22.964 460.5C22.964 461.712 22.136 462.66 20.972 462.66ZM28.2501 463.644C29.1861 463.644 29.9541 463.164 30.2661 462.648L30.3981 463.5H31.3461V457.5H30.3981L30.2661 458.34C29.9301 457.836 29.1741 457.356 28.2501 457.356C26.5341 457.356 25.3101 458.748 25.3101 460.5C25.3101 462.252 26.5341 463.644 28.2501 463.644ZM28.4181 462.66C27.2541 462.66 26.4261 461.724 26.4261 460.5C26.4261 459.276 27.2541 458.34 28.4181 458.34C29.5581 458.34 30.3861 459.228 30.3861 460.5C30.3861 461.772 29.5581 462.66 28.4181 462.66ZM35.0267 465.9L38.1227 457.5H36.9827L35.3747 462.06L33.6347 457.5H32.4947L34.8227 463.38L33.9107 465.9H35.0267ZM38.3741 463.5H39.5861V462.336H38.3741V463.5ZM42.0752 463.5H43.1912L45.4352 457.5H44.3432L42.6392 462.324L40.9232 457.5H39.8312L42.0752 463.5ZM48.9571 463.644C49.8931 463.644 50.6611 463.164 50.9731 462.648L51.1051 463.5H52.0531V457.5H51.1051L50.9731 458.34C50.6371 457.836 49.8811 457.356 48.9571 457.356C47.2411 457.356 46.0171 458.748 46.0171 460.5C46.0171 462.252 47.2411 463.644 48.9571 463.644ZM49.1251 462.66C47.9611 462.66 47.1331 461.724 47.1331 460.5C47.1331 459.276 47.9611 458.34 49.1251 458.34C50.2651 458.34 51.0931 459.228 51.0931 460.5C51.0931 461.772 50.2651 462.66 49.1251 462.66ZM54.1378 463.5H55.2178V460.26C55.2178 459.132 55.7098 458.46 56.5858 458.46C56.8618 458.46 57.1978 458.532 57.4498 458.676L57.7018 457.584C57.4498 457.452 57.1378 457.356 56.7658 457.356C56.0698 457.356 55.5058 457.74 55.2058 458.352L55.0858 457.5H54.1378V463.5ZM60.1258 463.644C61.3738 463.644 62.2378 462.852 62.2378 461.82C62.2378 460.968 61.7818 460.38 60.9058 460.044L60.0898 459.732C59.5978 459.54 59.3698 459.312 59.3698 458.952C59.3698 458.58 59.6818 458.304 60.1018 458.304C60.4858 458.304 60.8098 458.544 60.9898 458.988L61.8418 458.46C61.4938 457.776 60.9178 457.356 60.1018 457.356C59.0938 457.356 58.3738 458.028 58.3738 458.892C58.3738 459.552 58.7218 460.164 59.4778 460.464L60.2578 460.764C61.0018 461.052 61.2298 461.364 61.2298 461.796C61.2298 462.276 60.8458 462.696 60.1258 462.696C59.4658 462.696 59.0338 462.336 58.7938 461.676L57.9418 462.06C58.2778 462.996 58.9978 463.644 60.1258 463.644ZM66.4569 463.644C68.2689 463.644 69.5529 462.252 69.5529 460.5C69.5529 458.748 68.2689 457.356 66.4569 457.356C64.6569 457.356 63.3609 458.748 63.3609 460.5C63.3609 462.252 64.6569 463.644 66.4569 463.644ZM66.4569 462.66C65.3049 462.66 64.4649 461.76 64.4649 460.5C64.4649 459.24 65.3049 458.34 66.4569 458.34C67.6089 458.34 68.4489 459.24 68.4489 460.5C68.4489 461.76 67.6089 462.66 66.4569 462.66ZM76.442 461.988L75.542 461.604C75.206 462.252 74.69 462.66 73.85 462.66C72.818 462.66 71.99 462.108 71.858 460.8H76.598C76.622 460.68 76.622 460.5 76.622 460.368C76.622 458.664 75.566 457.356 73.754 457.356C72.014 457.356 70.814 458.7 70.814 460.512C70.814 462.276 71.918 463.644 73.766 463.644C75.134 463.644 76.058 462.912 76.442 461.988ZM73.754 458.34C74.714 458.34 75.446 458.916 75.53 459.972H71.882C72.05 458.856 72.842 458.34 73.754 458.34ZM78.1006 463.5H79.3126V462.336H78.1006V463.5ZM83.5872 463.644C84.9312 463.644 85.7952 462.96 86.2272 462.012L85.2672 461.58C84.9432 462.24 84.4392 462.66 83.5992 462.66C82.4592 462.66 81.7152 461.76 81.7152 460.5C81.7152 459.24 82.4712 458.34 83.5752 458.34C84.4512 458.34 84.9312 458.76 85.2672 459.42L86.2272 459.012C85.7952 457.968 84.8712 457.356 83.5872 457.356C81.8112 457.356 80.5992 458.76 80.5992 460.5C80.5992 462.24 81.8112 463.644 83.5872 463.644ZM90.2225 463.644C92.0345 463.644 93.3185 462.252 93.3185 460.5C93.3185 458.748 92.0345 457.356 90.2225 457.356C88.4225 457.356 87.1265 458.748 87.1265 460.5C87.1265 462.252 88.4225 463.644 90.2225 463.644ZM90.2225 462.66C89.0705 462.66 88.2305 461.76 88.2305 460.5C88.2305 459.24 89.0705 458.34 90.2225 458.34C91.3745 458.34 92.2145 459.24 92.2145 460.5C92.2145 461.76 91.3745 462.66 90.2225 462.66ZM94.9424 463.5H96.0224V460.836C96.0224 459.132 96.7424 458.34 97.5944 458.34C98.2784 458.34 98.7824 458.82 98.7824 459.876V463.5H99.8504V460.764C99.8504 459.168 100.558 458.34 101.434 458.34C102.106 458.34 102.61 458.82 102.61 459.876V463.5H103.69V459.852C103.69 458.256 102.898 457.356 101.494 457.356C100.75 457.356 100.042 457.776 99.6344 458.472C99.2984 457.68 98.6744 457.356 97.8464 457.356C97.0424 457.356 96.3344 457.836 96.0224 458.46L95.8904 457.5H94.9424V463.5ZM104.729 463.92H105.785L110.861 454.68H109.805L104.729 463.92ZM115.532 462.648L115.652 463.5H116.6V454.92H115.52V458.364C115.208 457.872 114.476 457.356 113.54 457.356C111.8 457.356 110.576 458.748 110.576 460.5C110.576 462.252 111.8 463.644 113.54 463.644C114.428 463.644 115.184 463.188 115.532 462.648ZM113.672 458.34C114.812 458.34 115.64 459.252 115.64 460.5C115.64 461.76 114.812 462.66 113.672 462.66C112.508 462.66 111.68 461.724 111.68 460.5C111.68 459.288 112.508 458.34 113.672 458.34ZM121.145 463.644C122.081 463.644 122.849 463.164 123.161 462.648L123.293 463.5H124.241V457.5H123.293L123.161 458.34C122.825 457.836 122.069 457.356 121.145 457.356C119.429 457.356 118.205 458.748 118.205 460.5C118.205 462.252 119.429 463.644 121.145 463.644ZM121.313 462.66C120.149 462.66 119.321 461.724 119.321 460.5C119.321 459.276 120.149 458.34 121.313 458.34C122.453 458.34 123.281 459.228 123.281 460.5C123.281 461.772 122.453 462.66 121.313 462.66ZM126.325 463.5H127.405V460.836C127.405 459.132 128.125 458.34 128.977 458.34C129.661 458.34 130.165 458.82 130.165 459.876V463.5H131.233V460.764C131.233 459.168 131.941 458.34 132.817 458.34C133.489 458.34 133.993 458.82 133.993 459.876V463.5H135.073V459.852C135.073 458.256 134.281 457.356 132.877 457.356C132.133 457.356 131.425 457.776 131.017 458.472C130.681 457.68 130.057 457.356 129.229 457.356C128.425 457.356 127.717 457.836 127.405 458.46L127.273 457.5H126.325V463.5ZM139.664 463.644C141.476 463.644 142.76 462.252 142.76 460.5C142.76 458.748 141.476 457.356 139.664 457.356C137.864 457.356 136.568 458.748 136.568 460.5C136.568 462.252 137.864 463.644 139.664 463.644ZM139.664 462.66C138.512 462.66 137.672 461.76 137.672 460.5C137.672 459.24 138.512 458.34 139.664 458.34C140.816 458.34 141.656 459.24 141.656 460.5C141.656 461.76 140.816 462.66 139.664 462.66ZM144.384 463.5H145.464V454.92H144.384V463.5ZM150.02 463.644C150.956 463.644 151.724 463.164 152.036 462.648L152.168 463.5H153.116V457.5H152.168L152.036 458.34C151.7 457.836 150.944 457.356 150.02 457.356C148.304 457.356 147.08 458.748 147.08 460.5C147.08 462.252 148.304 463.644 150.02 463.644ZM150.188 462.66C149.024 462.66 148.196 461.724 148.196 460.5C148.196 459.276 149.024 458.34 150.188 458.34C151.328 458.34 152.156 459.228 152.156 460.5C152.156 461.772 151.328 462.66 150.188 462.66ZM159.82 462.444H158.176V455.1H157.264L155.464 455.94V456.948L157.048 456.336V462.444H155.38V463.5H159.82V462.444ZM161.545 463.5H166.657V462.444H162.913L164.917 460.26C165.877 459.228 166.513 458.376 166.513 457.26C166.513 455.94 165.445 454.956 164.125 454.956C162.781 454.956 161.893 455.772 161.593 456.936L162.673 457.284C162.829 456.504 163.345 456.024 164.065 456.024C164.773 456.024 165.385 456.552 165.385 457.32C165.385 458.1 164.809 458.784 163.825 459.888L161.545 462.504V463.5ZM173.565 460.896C173.565 459.54 172.665 458.436 170.997 458.328L173.181 456.036V455.1H168.477V456.156H171.765L169.725 458.352V459.132L170.601 459.192C171.753 459.228 172.437 459.936 172.437 460.86C172.437 461.88 171.693 462.588 170.733 462.588C169.857 462.588 169.221 462.012 169.017 461.196L167.997 461.52C168.297 462.804 169.269 463.644 170.709 463.644C172.293 463.644 173.565 462.54 173.565 460.896ZM178.073 463.5H179.201V461.64H180.401V460.608H179.201V455.1H178.217L174.509 460.704V461.64H178.073V463.5ZM175.721 460.608L178.061 457.032V460.608H175.721ZM182.029 463.5H183.109V458.484H184.537V457.5H183.109V456.924C183.109 456.3 183.433 455.952 183.973 455.952C184.201 455.952 184.417 456.024 184.561 456.108V455.076C184.357 455.004 184.129 454.956 183.829 454.956C182.701 454.956 182.029 455.64 182.029 456.984V457.5H181.213V458.484H182.029V463.5ZM189.309 458.196L190.353 458.028V457.356H187.689C186.405 457.356 185.301 458.28 185.301 459.624C185.301 460.356 185.757 461.076 186.333 461.376C185.553 461.7 184.905 462.576 184.905 463.584C184.905 464.964 186.057 466.044 187.689 466.044C189.309 466.044 190.425 464.964 190.425 463.584C190.425 462.576 189.777 461.7 188.985 461.376C189.573 461.112 190.029 460.452 190.029 459.708C190.029 458.988 189.681 458.484 189.309 458.196ZM187.689 460.98C186.861 460.98 186.285 460.392 186.285 459.66C186.285 458.88 186.921 458.304 187.689 458.304C188.457 458.304 189.045 458.88 189.045 459.66C189.045 460.392 188.517 460.98 187.689 460.98ZM187.689 465.096C186.657 465.096 185.913 464.4 185.913 463.512C185.913 462.612 186.717 461.892 187.689 461.892C188.661 461.892 189.405 462.612 189.405 463.512C189.405 464.4 188.709 465.096 187.689 465.096ZM195.034 463.644C196.75 463.644 197.998 462.252 197.998 460.5C197.998 458.748 196.87 457.356 195.082 457.356C194.17 457.356 193.438 457.86 193.054 458.364V454.92H191.974V463.5H192.922L193.054 462.648C193.39 463.188 194.146 463.644 195.034 463.644ZM194.902 462.66C193.762 462.66 192.934 461.76 192.934 460.5C192.934 459.252 193.81 458.34 194.95 458.34C196.126 458.34 196.894 459.288 196.894 460.5C196.894 461.724 196.042 462.66 194.902 462.66ZM202.18 463.644C203.116 463.644 203.884 463.164 204.196 462.648L204.328 463.5H205.276V457.5H204.328L204.196 458.34C203.86 457.836 203.104 457.356 202.18 457.356C200.464 457.356 199.24 458.748 199.24 460.5C199.24 462.252 200.464 463.644 202.18 463.644ZM202.348 462.66C201.184 462.66 200.356 461.724 200.356 460.5C200.356 459.276 201.184 458.34 202.348 458.34C203.488 458.34 204.316 459.228 204.316 460.5C204.316 461.772 203.488 462.66 202.348 462.66ZM207.276 463.5H208.488V462.336H207.276V463.5ZM210.405 463.5H211.617V462.336H210.405V463.5ZM213.534 463.5H214.746V462.336H213.534V463.5Z" fill="white"/>
<path d="M300 458H295.5C294.948 458 294.5 458.448 294.5 459V463.5C294.5 464.052 294.948 464.5 295.5 464.5H300C300.552 464.5 301 464.052 301 463.5V459C301 458.448 300.552 458 300 458Z" stroke="#0555FF" stroke-linecap="round" stroke-linejoin="round"/>
<path d="M292.5 461H292C291.735 461 291.48 460.895 291.293 460.707C291.105 460.52 291 460.265 291 460V455.5C291 455.235 291.105 454.98 291.293 454.793C291.48 454.605 291.735 454.5 292 454.5H296.5C296.765 454.5 297.02 454.605 297.207 454.793C297.395 454.98 297.5 455.235 297.5 455.5V456" stroke="#0555FF" stroke-linecap="round" stroke-linejoin="round"/>
<path d="M311.687 463.644C313.355 463.644 314.603 462.876 315.239 461.628L314.255 461.124C313.823 461.94 312.959 462.576 311.675 462.576C309.983 462.576 308.723 461.208 308.723 459.3C308.723 457.392 310.007 456.024 311.663 456.024C312.935 456.024 313.763 456.612 314.195 457.488L315.191 456.984C314.591 455.724 313.367 454.956 311.675 454.956C309.251 454.956 307.583 456.78 307.583 459.3C307.583 461.808 309.215 463.644 311.687 463.644ZM319.242 463.644C321.054 463.644 322.338 462.252 322.338 460.5C322.338 458.748 321.054 457.356 319.242 457.356C317.442 457.356 316.146 458.748 316.146 460.5C316.146 462.252 317.442 463.644 319.242 463.644ZM319.242 462.66C318.09 462.66 317.25 461.76 317.25 460.5C317.25 459.24 318.09 458.34 319.242 458.34C320.394 458.34 321.234 459.24 321.234 460.5C321.234 461.76 320.394 462.66 319.242 462.66ZM323.962 465.948H325.042V462.648C325.366 463.14 326.098 463.644 327.034 463.644C328.774 463.644 329.986 462.252 329.986 460.5C329.986 458.748 328.81 457.356 327.106 457.356C326.218 457.356 325.438 457.8 325.042 458.328L324.91 457.5H323.962V465.948ZM326.89 462.66C325.762 462.66 324.922 461.76 324.922 460.5C324.922 459.24 325.762 458.34 326.902 458.34C328.042 458.34 328.882 459.276 328.882 460.5C328.882 461.712 328.054 462.66 326.89 462.66ZM333.07 465.9L336.166 457.5H335.026L333.418 462.06L331.678 457.5H330.538L332.866 463.38L331.954 465.9H333.07ZM340.333 463.5H341.413V454.92H340.333V463.5ZM343.413 456.336H344.649V455.16H343.413V456.336ZM343.497 463.5H344.577V457.5H343.497V463.5ZM346.638 463.5H347.718V460.824C347.718 459.12 348.462 458.34 349.374 458.34C350.286 458.34 350.778 458.976 350.778 460.14V463.5H351.858V459.924C351.858 458.34 351.126 457.356 349.578 457.356C348.69 457.356 348.006 457.86 347.718 458.46L347.586 457.5H346.638V463.5ZM353.845 463.5H354.925V460.716L357.397 463.5H358.789L355.849 460.272L358.525 457.5H357.121L354.925 459.84V454.92H353.845V463.5Z" fill="#0555FF"/>
<g filter="url(#filter0_d)">
<rect x="1" y="145" width="374" height="268" rx="12" fill="#0C0D11"/>
<rect x="0.5" y="144.5" width="375" height="269" rx="12.5" stroke="white" stroke-opacity="0.2"/>
</g>
<rect x="25" y="229" width="326" height="40" rx="8" fill="#11141C"/>
<path opacity="0.64" d="M42.188 254H43.316V247.544L47.432 254H48.608V245.6H47.48V252.14L43.4 245.6H42.188V254ZM53.3165 254.144C54.2525 254.144 55.0205 253.664 55.3325 253.148L55.4645 254H56.4125V248H55.4645L55.3325 248.84C54.9965 248.336 54.2405 247.856 53.3165 247.856C51.6005 247.856 50.3765 249.248 50.3765 251C50.3765 252.752 51.6005 254.144 53.3165 254.144ZM53.4845 253.16C52.3205 253.16 51.4925 252.224 51.4925 251C51.4925 249.776 52.3205 248.84 53.4845 248.84C54.6245 248.84 55.4525 249.728 55.4525 251C55.4525 252.272 54.6245 253.16 53.4845 253.16ZM58.4971 254H59.5771V251.336C59.5771 249.632 60.2971 248.84 61.1491 248.84C61.8331 248.84 62.3371 249.32 62.3371 250.376V254H63.4051V251.264C63.4051 249.668 64.1131 248.84 64.9891 248.84C65.6611 248.84 66.1651 249.32 66.1651 250.376V254H67.2451V250.352C67.2451 248.756 66.4531 247.856 65.0491 247.856C64.3051 247.856 63.5971 248.276 63.1891 248.972C62.8531 248.18 62.2291 247.856 61.4011 247.856C60.5971 247.856 59.8891 248.336 59.5771 248.96L59.4451 248H58.4971V254ZM74.3678 252.488L73.4678 252.104C73.1318 252.752 72.6158 253.16 71.7758 253.16C70.7438 253.16 69.9158 252.608 69.7838 251.3H74.5238C74.5478 251.18 74.5478 251 74.5478 250.868C74.5478 249.164 73.4918 247.856 71.6798 247.856C69.9398 247.856 68.7398 249.2 68.7398 251.012C68.7398 252.776 69.8438 254.144 71.6918 254.144C73.0598 254.144 73.9838 253.412 74.3678 252.488ZM71.6798 248.84C72.6398 248.84 73.3718 249.416 73.4558 250.472H69.8078C69.9758 249.356 70.7678 248.84 71.6798 248.84ZM81.7147 254.144C83.5267 254.144 84.8107 252.752 84.8107 251C84.8107 249.248 83.5267 247.856 81.7147 247.856C79.9147 247.856 78.6187 249.248 78.6187 251C78.6187 252.752 79.9147 254.144 81.7147 254.144ZM81.7147 253.16C80.5627 253.16 79.7227 252.26 79.7227 251C79.7227 249.74 80.5627 248.84 81.7147 248.84C82.8667 248.84 83.7067 249.74 83.7067 251C83.7067 252.26 82.8667 253.16 81.7147 253.16ZM86.4346 254H87.5146V251.324C87.5146 249.62 88.2586 248.84 89.1706 248.84C90.0826 248.84 90.5746 249.476 90.5746 250.64V254H91.6546V250.424C91.6546 248.84 90.9226 247.856 89.3746 247.856C88.4866 247.856 87.8026 248.36 87.5146 248.96L87.3826 248H86.4346V254ZM99.1379 254.144C100.482 254.144 101.346 253.46 101.778 252.512L100.818 252.08C100.494 252.74 99.9899 253.16 99.1499 253.16C98.0099 253.16 97.2659 252.26 97.2659 251C97.2659 249.74 98.0219 248.84 99.1259 248.84C100.002 248.84 100.482 249.26 100.818 249.92L101.778 249.512C101.346 248.468 100.422 247.856 99.1379 247.856C97.3619 247.856 96.1499 249.26 96.1499 251C96.1499 252.74 97.3619 254.144 99.1379 254.144ZM105.617 254.144C106.553 254.144 107.321 253.664 107.633 253.148L107.765 254H108.713V248H107.765L107.633 248.84C107.297 248.336 106.541 247.856 105.617 247.856C103.901 247.856 102.677 249.248 102.677 251C102.677 252.752 103.901 254.144 105.617 254.144ZM105.785 253.16C104.621 253.16 103.793 252.224 103.793 251C103.793 249.776 104.621 248.84 105.785 248.84C106.925 248.84 107.753 249.728 107.753 251C107.753 252.272 106.925 253.16 105.785 253.16ZM110.798 254H111.878V250.76C111.878 249.632 112.37 248.96 113.246 248.96C113.522 248.96 113.858 249.032 114.11 249.176L114.362 248.084C114.11 247.952 113.798 247.856 113.426 247.856C112.73 247.856 112.166 248.24 111.866 248.852L111.746 248H110.798V254ZM119.528 253.148L119.648 254H120.596V245.42H119.516V248.864C119.204 248.372 118.472 247.856 117.536 247.856C115.796 247.856 114.572 249.248 114.572 251C114.572 252.752 115.796 254.144 117.536 254.144C118.424 254.144 119.18 253.688 119.528 253.148ZM117.668 248.84C118.808 248.84 119.636 249.752 119.636 251C119.636 252.26 118.808 253.16 117.668 253.16C116.504 253.16 115.676 252.224 115.676 251C115.676 249.788 116.504 248.84 117.668 248.84Z" fill="white"/>
<rect x="25" y="169" width="326" height="40" rx="8" fill="#11141C"/>
<path opacity="0.64" d="M42.188 194H46.916V192.944H43.316V190.148H46.652V189.104H43.316V186.656H46.916V185.6H42.188V194ZM48.7471 194H49.8271V191.336C49.8271 189.632 50.5471 188.84 51.3991 188.84C52.0831 188.84 52.5871 189.32 52.5871 190.376V194H53.6551V191.264C53.6551 189.668 54.3631 188.84 55.2391 188.84C55.9111 188.84 56.4151 189.32 56.4151 190.376V194H57.4951V190.352C57.4951 188.756 56.7031 187.856 55.2991 187.856C54.5551 187.856 53.8471 188.276 53.4391 188.972C53.1031 188.18 52.4791 187.856 51.6511 187.856C50.8471 187.856 50.1391 188.336 49.8271 188.96L49.6951 188H48.7471V194ZM61.9298 194.144C62.8658 194.144 63.6338 193.664 63.9458 193.148L64.0778 194H65.0258V188H64.0778L63.9458 188.84C63.6098 188.336 62.8538 187.856 61.9298 187.856C60.2138 187.856 58.9898 189.248 58.9898 191C58.9898 192.752 60.2138 194.144 61.9298 194.144ZM62.0978 193.16C60.9338 193.16 60.1058 192.224 60.1058 191C60.1058 189.776 60.9338 188.84 62.0978 188.84C63.2378 188.84 64.0658 189.728 64.0658 191C64.0658 192.272 63.2378 193.16 62.0978 193.16ZM67.0144 186.836H68.2504V185.66H67.0144V186.836ZM67.0984 194H68.1784V188H67.0984V194ZM70.2393 194H71.3193V185.42H70.2393V194Z" fill="white"/>
<rect x="25" y="289" width="326" height="40" rx="8" fill="#11141C"/>
<path d="M327.935 314.869C330.66 314.869 332.869 312.66 332.869 309.935C332.869 307.209 330.66 305 327.935 305C325.209 305 323 307.209 323 309.935C323 312.66 325.209 314.869 327.935 314.869Z" fill="#EE0005"/>
<path d="M334.065 314.869C336.791 314.869 339 312.66 339 309.935C339 307.209 336.791 305 334.065 305C331.34 305 329.131 307.209 329.131 309.935C329.131 312.66 331.34 314.869 334.065 314.869Z" fill="#F9A000"/>
<path d="M329.131 309.935C329.131 311.501 329.861 312.897 331 313.801C332.139 312.897 332.869 311.501 332.869 309.935C332.869 308.368 332.139 306.972 331 306.068C329.861 306.972 329.131 308.368 329.131 309.935Z" fill="#FF6300"/>
<path opacity="0.64" d="M45.8 314.144C47.468 314.144 48.716 313.376 49.352 312.128L48.368 311.624C47.936 312.44 47.072 313.076 45.788 313.076C44.096 313.076 42.836 311.708 42.836 309.8C42.836 307.892 44.12 306.524 45.776 306.524C47.048 306.524 47.876 307.112 48.308 307.988L49.304 307.484C48.704 306.224 47.48 305.456 45.788 305.456C43.364 305.456 41.696 307.28 41.696 309.8C41.696 312.308 43.328 314.144 45.8 314.144ZM53.1993 314.144C54.1353 314.144 54.9033 313.664 55.2153 313.148L55.3473 314H56.2953V308H55.3473L55.2153 308.84C54.8793 308.336 54.1233 307.856 53.1993 307.856C51.4833 307.856 50.2593 309.248 50.2593 311C50.2593 312.752 51.4833 314.144 53.1993 314.144ZM53.3673 313.16C52.2033 313.16 51.3753 312.224 51.3753 311C51.3753 309.776 52.2033 308.84 53.3673 308.84C54.5073 308.84 55.3353 309.728 55.3353 311C55.3353 312.272 54.5073 313.16 53.3673 313.16ZM58.3799 314H59.4599V310.76C59.4599 309.632 59.9519 308.96 60.8279 308.96C61.1039 308.96 61.4399 309.032 61.6919 309.176L61.9439 308.084C61.6919 307.952 61.3799 307.856 61.0079 307.856C60.3119 307.856 59.7479 308.24 59.4479 308.852L59.3279 308H58.3799V314ZM67.1098 313.148L67.2298 314H68.1778V305.42H67.0978V308.864C66.7858 308.372 66.0538 307.856 65.1178 307.856C63.3778 307.856 62.1538 309.248 62.1538 311C62.1538 312.752 63.3778 314.144 65.1178 314.144C66.0058 314.144 66.7618 313.688 67.1098 313.148ZM65.2498 308.84C66.3898 308.84 67.2178 309.752 67.2178 311C67.2178 312.26 66.3898 313.16 65.2498 313.16C64.0858 313.16 63.2578 312.224 63.2578 311C63.2578 309.788 64.0858 308.84 65.2498 308.84ZM73.251 314H74.331V311.324C74.331 309.62 75.075 308.84 75.987 308.84C76.899 308.84 77.391 309.476 77.391 310.64V314H78.471V310.424C78.471 308.84 77.739 307.856 76.191 307.856C75.303 307.856 74.619 308.36 74.331 308.96L74.199 308H73.251V314ZM82.6781 314.144C83.5541 314.144 84.2861 313.64 84.5741 313.04L84.7061 314H85.6421V308H84.5621V310.76C84.5621 312.368 83.8541 313.16 82.8701 313.16C81.9821 313.16 81.4181 312.572 81.4181 311.408V308H80.3381V311.504C80.3381 313.112 81.1061 314.144 82.6781 314.144ZM87.7588 314H88.8388V311.336C88.8388 309.632 89.5588 308.84 90.4108 308.84C91.0948 308.84 91.5988 309.32 91.5988 310.376V314H92.6668V311.264C92.6668 309.668 93.3748 308.84 94.2508 308.84C94.9228 308.84 95.4268 309.32 95.4268 310.376V314H96.5068V310.352C96.5068 308.756 95.7148 307.856 94.3108 307.856C93.5668 307.856 92.8588 308.276 92.4508 308.972C92.1148 308.18 91.4908 307.856 90.6628 307.856C89.8588 307.856 89.1508 308.336 88.8388 308.96L88.7068 308H87.7588V314ZM101.542 314.144C103.258 314.144 104.506 312.752 104.506 311C104.506 309.248 103.378 307.856 101.59 307.856C100.678 307.856 99.9455 308.36 99.5615 308.864V305.42H98.4815V314H99.4295L99.5615 313.148C99.8975 313.688 100.654 314.144 101.542 314.144ZM101.41 313.16C100.27 313.16 99.4415 312.26 99.4415 311C99.4415 309.752 100.318 308.84 101.458 308.84C102.634 308.84 103.402 309.788 103.402 311C103.402 312.224 102.55 313.16 101.41 313.16ZM111.376 312.488L110.476 312.104C110.14 312.752 109.624 313.16 108.784 313.16C107.752 313.16 106.924 312.608 106.792 311.3H111.532C111.556 311.18 111.556 311 111.556 310.868C111.556 309.164 110.5 307.856 108.688 307.856C106.948 307.856 105.748 309.2 105.748 311.012C105.748 312.776 106.852 314.144 108.7 314.144C110.068 314.144 110.992 313.412 111.376 312.488ZM108.688 308.84C109.648 308.84 110.38 309.416 110.464 310.472H106.816C106.984 309.356 107.776 308.84 108.688 308.84ZM113.118 314H114.198V310.76C114.198 309.632 114.69 308.96 115.566 308.96C115.842 308.96 116.178 309.032 116.43 309.176L116.682 308.084C116.43 307.952 116.118 307.856 115.746 307.856C115.05 307.856 114.486 308.24 114.186 308.852L114.066 308H113.118V314Z" fill="white"/>
<rect x="25" y="349" width="153" height="40" rx="8" fill="#11141C"/>
<path opacity="0.64" d="M42.188 374H46.916V372.944H43.316V370.148H46.652V369.104H43.316V366.656H46.916V365.6H42.188V374ZM47.8471 374H49.0711L50.5831 371.66L52.1071 374H53.3191L51.1951 370.844L53.1391 368H51.9151L50.5831 370.028L49.2511 368H48.0631L49.9711 370.844L47.8471 374ZM54.5245 376.448H55.6045V373.148C55.9285 373.64 56.6605 374.144 57.5965 374.144C59.3365 374.144 60.5485 372.752 60.5485 371C60.5485 369.248 59.3725 367.856 57.6685 367.856C56.7805 367.856 56.0005 368.3 55.6045 368.828L55.4725 368H54.5245V376.448ZM57.4525 373.16C56.3245 373.16 55.4845 372.26 55.4845 371C55.4845 369.74 56.3245 368.84 57.4645 368.84C58.6045 368.84 59.4445 369.776 59.4445 371C59.4445 372.212 58.6165 373.16 57.4525 373.16ZM62.0574 366.836H63.2934V365.66H62.0574V366.836ZM62.1414 374H63.2214V368H62.1414V374ZM65.2823 374H66.3623V370.76C66.3623 369.632 66.8543 368.96 67.7303 368.96C68.0063 368.96 68.3423 369.032 68.5943 369.176L68.8463 368.084C68.5943 367.952 68.2823 367.856 67.9103 367.856C67.2143 367.856 66.6503 368.24 66.3503 368.852L66.2303 368H65.2823V374ZM71.4955 376.4L74.5915 368H73.4515L71.8435 372.56L70.1035 368H68.9635L71.2915 373.88L70.3795 376.4H71.4955ZM83.2348 373.148L83.3548 374H84.3028V365.42H83.2228V368.864C82.9108 368.372 82.1788 367.856 81.2428 367.856C79.5028 367.856 78.2788 369.248 78.2788 371C78.2788 372.752 79.5028 374.144 81.2428 374.144C82.1308 374.144 82.8868 373.688 83.2348 373.148ZM81.3748 368.84C82.5148 368.84 83.3428 369.752 83.3428 371C83.3428 372.26 82.5148 373.16 81.3748 373.16C80.2108 373.16 79.3828 372.224 79.3828 371C79.3828 369.788 80.2108 368.84 81.3748 368.84ZM88.8478 374.144C89.7838 374.144 90.5518 373.664 90.8638 373.148L90.9958 374H91.9438V368H90.9958L90.8638 368.84C90.5278 368.336 89.7718 367.856 88.8478 367.856C87.1318 367.856 85.9078 369.248 85.9078 371C85.9078 372.752 87.1318 374.144 88.8478 374.144ZM89.0158 373.16C87.8518 373.16 87.0238 372.224 87.0238 371C87.0238 369.776 87.8518 368.84 89.0158 368.84C90.1558 368.84 90.9838 369.728 90.9838 371C90.9838 372.272 90.1558 373.16 89.0158 373.16ZM94.2204 374H95.3004V368.984H96.6684V368H95.3004V366.14L94.2204 366.404V368H93.4044V368.984H94.2204V374ZM102.88 372.488L101.98 372.104C101.644 372.752 101.128 373.16 100.288 373.16C99.2555 373.16 98.4275 372.608 98.2955 371.3H103.036C103.06 371.18 103.06 371 103.06 370.868C103.06 369.164 102.004 367.856 100.192 367.856C98.4515 367.856 97.2515 369.2 97.2515 371.012C97.2515 372.776 98.3555 374.144 100.204 374.144C101.572 374.144 102.496 373.412 102.88 372.488ZM100.192 368.84C101.152 368.84 101.884 369.416 101.968 370.472H98.3195C98.4875 369.356 99.2795 368.84 100.192 368.84Z" fill="white"/>
<rect x="198" y="349" width="153" height="40" rx="8" fill="#11141C"/>
<path opacity="0.64" d="M218.8 374.144C220.468 374.144 221.716 373.376 222.352 372.128L221.368 371.624C220.936 372.44 220.072 373.076 218.788 373.076C217.096 373.076 215.836 371.708 215.836 369.8C215.836 367.892 217.12 366.524 218.776 366.524C220.048 366.524 220.876 367.112 221.308 367.988L222.304 367.484C221.704 366.224 220.48 365.456 218.788 365.456C216.364 365.456 214.696 367.28 214.696 369.8C214.696 372.308 216.328 374.144 218.8 374.144ZM225.896 374H227.133L230.049 365.6H228.825L226.521 372.524L224.217 365.6H222.993L225.896 374ZM233.314 374H234.55L237.466 365.6H236.242L233.938 372.524L231.634 365.6H230.41L233.314 374Z" fill="white"/>
<g filter="url(#filter1_d)">
<rect x="1" y="1" width="374" height="128" rx="12" fill="#0C0D11"/>
<rect x="0.5" y="0.5" width="375" height="129" rx="12.5" stroke="white" stroke-opacity="0.2"/>
</g>
<rect x="25" y="25" width="153" height="80" rx="8" fill="#0C0D11"/>
<rect x="24.5" y="24.5" width="154" height="81" rx="8.5" stroke="white" stroke-opacity="0.08"/>
<g opacity="0.64">
<path d="M47.1562 80.6152C47.1562 81.5072 46.8242 82.2461 46.1602 82.832C45.5026 83.418 44.5618 83.7858 43.3379 83.9355V86.1621H42.0586V84.0234C41.3164 84.0104 40.6035 83.9486 39.9199 83.8379C39.2428 83.7207 38.6829 83.5612 38.2402 83.3594V81.7188C38.7285 81.9466 39.3242 82.1452 40.0273 82.3145C40.737 82.4772 41.4141 82.5651 42.0586 82.5781V78.3984C40.724 77.9753 39.7799 77.4805 39.2266 76.9141C38.6732 76.3411 38.3965 75.6087 38.3965 74.7168C38.3965 73.8574 38.7253 73.151 39.3828 72.5977C40.0404 72.0443 40.9323 71.7057 42.0586 71.582V69.8242H43.3379V71.5625C44.5749 71.5951 45.75 71.8424 46.8633 72.3047L46.3164 73.6816C45.3073 73.2845 44.3145 73.0501 43.3379 72.9785V77.0996C44.3796 77.4512 45.1543 77.7832 45.6621 78.0957C46.1764 78.4082 46.554 78.7663 46.7949 79.1699C47.0358 79.5671 47.1562 80.0488 47.1562 80.6152ZM45.3789 80.7422C45.3789 80.2734 45.2259 79.9023 44.9199 79.6289C44.6139 79.349 44.0866 79.0788 43.3379 78.8184V82.4805C44.6986 82.2721 45.3789 81.6927 45.3789 80.7422ZM40.1836 74.6973C40.1836 75.1725 40.3236 75.5566 40.6035 75.8496C40.8835 76.1426 41.3685 76.4128 42.0586 76.6602V73.0176C41.4466 73.1217 40.9811 73.3203 40.6621 73.6133C40.3431 73.9062 40.1836 74.2676 40.1836 74.6973ZM49.5853 85H58.5653V82.82H52.7653L55.8653 79.52C57.3653 77.92 58.3053 76.6 58.3053 74.72C58.3053 72.48 56.4853 70.76 54.1053 70.76C51.5653 70.76 50.1253 72.34 49.6653 74.3L51.9053 75C52.1253 73.88 52.8453 73.06 53.9253 73.06C54.9853 73.06 55.8453 73.84 55.8453 74.96C55.8453 76.12 54.9253 77.12 53.4653 78.7L49.5853 82.9V85ZM65.532 85.24C68.752 85.24 70.892 82.54 70.892 78C70.892 73.44 68.752 70.76 65.532 70.76C62.312 70.76 60.172 73.44 60.172 78C60.172 82.54 62.312 85.24 65.532 85.24ZM65.532 83.02C63.772 83.02 62.612 81.34 62.612 78C62.612 74.66 63.812 72.98 65.532 72.98C67.272 72.98 68.412 74.66 68.412 78C68.412 81.34 67.312 83.02 65.532 83.02ZM71.9788 87.56H73.6988L75.6388 82.5H73.0588L71.9788 87.56ZM82.2313 85.24C85.4513 85.24 87.5913 82.54 87.5913 78C87.5913 73.44 85.4513 70.76 82.2313 70.76C79.0113 70.76 76.8713 73.44 76.8713 78C76.8713 82.54 79.0113 85.24 82.2313 85.24ZM82.2313 83.02C80.4713 83.02 79.3113 81.34 79.3113 78C79.3113 74.66 80.5113 72.98 82.2313 72.98C83.9713 72.98 85.1113 74.66 85.1113 78C85.1113 81.34 84.0113 83.02 82.2313 83.02ZM93.618 85.24C96.838 85.24 98.978 82.54 98.978 78C98.978 73.44 96.838 70.76 93.618 70.76C90.398 70.76 88.258 73.44 88.258 78C88.258 82.54 90.398 85.24 93.618 85.24ZM93.618 83.02C91.858 83.02 90.698 81.34 90.698 78C90.698 74.66 91.898 72.98 93.618 72.98C95.358 72.98 96.498 74.66 96.498 78C96.498 81.34 95.398 83.02 93.618 83.02ZM105.005 85.24C108.225 85.24 110.365 82.54 110.365 78C110.365 73.44 108.225 70.76 105.005 70.76C101.785 70.76 99.6447 73.44 99.6447 78C99.6447 82.54 101.785 85.24 105.005 85.24ZM105.005 83.02C103.245 83.02 102.085 81.34 102.085 78C102.085 74.66 103.285 72.98 105.005 72.98C106.745 72.98 107.885 74.66 107.885 78C107.885 81.34 106.785 83.02 105.005 83.02ZM112.191 85H114.671V82.7H112.191V85ZM121.88 85.24C125.1 85.24 127.24 82.54 127.24 78C127.24 73.44 125.1 70.76 121.88 70.76C118.66 70.76 116.52 73.44 116.52 78C116.52 82.54 118.66 85.24 121.88 85.24ZM121.88 83.02C120.12 83.02 118.96 81.34 118.96 78C118.96 74.66 120.16 72.98 121.88 72.98C123.62 72.98 124.76 74.66 124.76 78C124.76 81.34 123.66 83.02 121.88 83.02ZM133.266 85.24C136.486 85.24 138.626 82.54 138.626 78C138.626 73.44 136.486 70.76 133.266 70.76C130.046 70.76 127.906 73.44 127.906 78C127.906 82.54 130.046 85.24 133.266 85.24ZM133.266 83.02C131.506 83.02 130.346 81.34 130.346 78C130.346 74.66 131.546 72.98 133.266 72.98C135.006 72.98 136.146 74.66 136.146 78C136.146 81.34 135.046 83.02 133.266 83.02Z" fill="white"/>
<path d="M39.508 54H40.648V46.656H43.06V45.6H37.228V46.656H39.508V54ZM44.337 54H45.417V51.348C45.417 49.644 46.173 48.84 47.085 48.84C47.997 48.84 48.537 49.476 48.537 50.64V54H49.617V50.424C49.617 48.84 48.837 47.856 47.301 47.856C46.437 47.856 45.717 48.348 45.417 48.96V45.42H44.337V54ZM51.5183 46.836H52.7543V45.66H51.5183V46.836ZM51.6023 54H52.6823V48H51.6023V54ZM56.2312 54.144C57.4792 54.144 58.3432 53.352 58.3432 52.32C58.3432 51.468 57.8872 50.88 57.0112 50.544L56.1952 50.232C55.7032 50.04 55.4752 49.812 55.4752 49.452C55.4752 49.08 55.7872 48.804 56.2072 48.804C56.5912 48.804 56.9152 49.044 57.0952 49.488L57.9472 48.96C57.5992 48.276 57.0232 47.856 56.2072 47.856C55.1992 47.856 54.4792 48.528 54.4792 49.392C54.4792 50.052 54.8272 50.664 55.5832 50.964L56.3632 51.264C57.1072 51.552 57.3352 51.864 57.3352 52.296C57.3352 52.776 56.9512 53.196 56.2312 53.196C55.5712 53.196 55.1392 52.836 54.8992 52.176L54.0472 52.56C54.3832 53.496 55.1032 54.144 56.2312 54.144ZM62.8643 54H63.9443V51.336C63.9443 49.632 64.6643 48.84 65.5163 48.84C66.2003 48.84 66.7043 49.32 66.7043 50.376V54H67.7723V51.264C67.7723 49.668 68.4803 48.84 69.3563 48.84C70.0283 48.84 70.5323 49.32 70.5323 50.376V54H71.6123V50.352C71.6123 48.756 70.8203 47.856 69.4163 47.856C68.6723 47.856 67.9643 48.276 67.5563 48.972C67.2203 48.18 66.5963 47.856 65.7683 47.856C64.9643 47.856 64.2563 48.336 63.9443 48.96L63.8123 48H62.8643V54ZM76.203 54.144C78.015 54.144 79.299 52.752 79.299 51C79.299 49.248 78.015 47.856 76.203 47.856C74.403 47.856 73.107 49.248 73.107 51C73.107 52.752 74.403 54.144 76.203 54.144ZM76.203 53.16C75.051 53.16 74.211 52.26 74.211 51C74.211 49.74 75.051 48.84 76.203 48.84C77.355 48.84 78.195 49.74 78.195 51C78.195 52.26 77.355 53.16 76.203 53.16ZM80.9229 54H82.0029V51.324C82.0029 49.62 82.7469 48.84 83.6589 48.84C84.5709 48.84 85.0629 49.476 85.0629 50.64V54H86.1429V50.424C86.1429 48.84 85.4109 47.856 83.8629 47.856C82.9749 47.856 82.2909 48.36 82.0029 48.96L81.8709 48H80.9229V54ZM88.3219 54H89.4019V48.984H90.7699V48H89.4019V46.14L88.3219 46.404V48H87.5059V48.984H88.3219V54ZM91.9971 54H93.0771V51.348C93.0771 49.644 93.8331 48.84 94.7451 48.84C95.6571 48.84 96.1971 49.476 96.1971 50.64V54H97.2771V50.424C97.2771 48.84 96.4971 47.856 94.9611 47.856C94.0971 47.856 93.3771 48.348 93.0771 48.96V45.42H91.9971V54Z" fill="white"/>
</g>
<rect x="198" y="25" width="153" height="80" rx="8" fill="#0C0D11"/>
<rect x="197.5" y="24.5" width="154" height="81" rx="8.5" stroke="white" stroke-opacity="0.08"/>
<g opacity="0.64">
<path d="M216.36 85H218.82V82.14H220.78V80.02H218.82V71H216.62L210.5 80.18V82.14H216.36V85ZM212.86 80.02L216.36 74.8V80.02H212.86Z" fill="white"/>
<path d="M211.188 54H212.316V50.256H213.744C215.184 50.256 216.204 49.272 216.204 47.952C216.204 46.62 215.184 45.6 213.744 45.6H211.188V54ZM212.316 49.248V46.656H213.684C214.596 46.656 215.076 47.28 215.076 47.952C215.076 48.6 214.596 49.248 213.684 49.248H212.316ZM222.438 52.488L221.538 52.104C221.202 52.752 220.686 53.16 219.846 53.16C218.814 53.16 217.986 52.608 217.854 51.3H222.594C222.618 51.18 222.618 51 222.618 50.868C222.618 49.164 221.562 47.856 219.75 47.856C218.01 47.856 216.81 49.2 216.81 51.012C216.81 52.776 217.914 54.144 219.762 54.144C221.13 54.144 222.054 53.412 222.438 52.488ZM219.75 48.84C220.71 48.84 221.442 49.416 221.526 50.472H217.878C218.046 49.356 218.838 48.84 219.75 48.84ZM224.181 54H225.261V51.324C225.261 49.62 226.005 48.84 226.917 48.84C227.829 48.84 228.321 49.476 228.321 50.64V54H229.401V50.424C229.401 48.84 228.669 47.856 227.121 47.856C226.233 47.856 225.549 48.36 225.261 48.96L225.129 48H224.181V54ZM235.864 53.148L235.984 54H236.932V45.42H235.852V48.864C235.54 48.372 234.808 47.856 233.872 47.856C232.132 47.856 230.908 49.248 230.908 51C230.908 52.752 232.132 54.144 233.872 54.144C234.76 54.144 235.516 53.688 235.864 53.148ZM234.004 48.84C235.144 48.84 235.972 49.752 235.972 51C235.972 52.26 235.144 53.16 234.004 53.16C232.84 53.16 232.012 52.224 232.012 51C232.012 49.788 232.84 48.84 234.004 48.84ZM238.921 46.836H240.157V45.66H238.921V46.836ZM239.005 54H240.085V48H239.005V54ZM242.146 54H243.226V51.324C243.226 49.62 243.97 48.84 244.882 48.84C245.794 48.84 246.286 49.476 246.286 50.64V54H247.366V50.424C247.366 48.84 246.634 47.856 245.086 47.856C244.198 47.856 243.514 48.36 243.226 48.96L243.094 48H242.146V54ZM253.145 48.696L254.189 48.528V47.856H251.525C250.241 47.856 249.137 48.78 249.137 50.124C249.137 50.856 249.593 51.576 250.169 51.876C249.389 52.2 248.741 53.076 248.741 54.084C248.741 55.464 249.893 56.544 251.525 56.544C253.145 56.544 254.261 55.464 254.261 54.084C254.261 53.076 253.613 52.2 252.821 51.876C253.409 51.612 253.865 50.952 253.865 50.208C253.865 49.488 253.517 48.984 253.145 48.696ZM251.525 51.48C250.697 51.48 250.121 50.892 250.121 50.16C250.121 49.38 250.757 48.804 251.525 48.804C252.293 48.804 252.881 49.38 252.881 50.16C252.881 50.892 252.353 51.48 251.525 51.48ZM251.525 55.596C250.493 55.596 249.749 54.9 249.749 54.012C249.749 53.112 250.553 52.392 251.525 52.392C252.497 52.392 253.241 53.112 253.241 54.012C253.241 54.9 252.545 55.596 251.525 55.596ZM258.942 54H260.07V45.6H258.942V54ZM262.302 54H263.382V51.324C263.382 49.62 264.126 48.84 265.038 48.84C265.95 48.84 266.442 49.476 266.442 50.64V54H267.522V50.424C267.522 48.84 266.79 47.856 265.242 47.856C264.354 47.856 263.67 48.36 263.382 48.96L263.25 48H262.302V54ZM270.841 54H271.957L274.201 48H273.109L271.405 52.824L269.689 48H268.597L270.841 54ZM277.879 54.144C279.691 54.144 280.975 52.752 280.975 51C280.975 49.248 279.691 47.856 277.879 47.856C276.079 47.856 274.783 49.248 274.783 51C274.783 52.752 276.079 54.144 277.879 54.144ZM277.879 53.16C276.727 53.16 275.887 52.26 275.887 51C275.887 49.74 276.727 48.84 277.879 48.84C279.031 48.84 279.871 49.74 279.871 51C279.871 52.26 279.031 53.16 277.879 53.16ZM282.503 46.836H283.739V45.66H282.503V46.836ZM282.587 54H283.667V48H282.587V54ZM288.236 54.144C289.58 54.144 290.444 53.46 290.876 52.512L289.916 52.08C289.592 52.74 289.088 53.16 288.248 53.16C287.108 53.16 286.364 52.26 286.364 51C286.364 49.74 287.12 48.84 288.224 48.84C289.1 48.84 289.58 49.26 289.916 49.92L290.876 49.512C290.444 48.468 289.52 47.856 288.236 47.856C286.46 47.856 285.248 49.26 285.248 51C285.248 52.74 286.46 54.144 288.236 54.144ZM297.403 52.488L296.503 52.104C296.167 52.752 295.651 53.16 294.811 53.16C293.779 53.16 292.951 52.608 292.819 51.3H297.559C297.583 51.18 297.583 51 297.583 50.868C297.583 49.164 296.527 47.856 294.715 47.856C292.975 47.856 291.775 49.2 291.775 51.012C291.775 52.776 292.879 54.144 294.727 54.144C296.095 54.144 297.019 53.412 297.403 52.488ZM294.715 48.84C295.675 48.84 296.407 49.416 296.491 50.472H292.843C293.011 49.356 293.803 48.84 294.715 48.84ZM300.634 54.144C301.882 54.144 302.746 53.352 302.746 52.32C302.746 51.468 302.29 50.88 301.414 50.544L300.598 50.232C300.106 50.04 299.878 49.812 299.878 49.452C299.878 49.08 300.19 48.804 300.61 48.804C300.994 48.804 301.318 49.044 301.498 49.488L302.35 48.96C302.002 48.276 301.426 47.856 300.61 47.856C299.602 47.856 298.882 48.528 298.882 49.392C298.882 50.052 299.23 50.664 299.986 50.964L300.766 51.264C301.51 51.552 301.738 51.864 301.738 52.296C301.738 52.776 301.354 53.196 300.634 53.196C299.974 53.196 299.542 52.836 299.302 52.176L298.45 52.56C298.786 53.496 299.506 54.144 300.634 54.144Z" fill="white"/>
</g>
<defs>
<filter id="filter0_d" x="0" y="144" width="384" height="278" filterUnits="userSpaceOnUse" color-interpolation-filters="sRGB">
<feFlood flood-opacity="0" result="BackgroundImageFix"/>
<feColorMatrix in="SourceAlpha" type="matrix" values="0 0 0 0 0 0 0 0 0 0 0 0 0 0 0 0 0 0 127 0"/>
<feOffset dx="8" dy="8"/>
<feColorMatrix type="matrix" values="0 0 0 0 0.0196078 0 0 0 0 0.333333 0 0 0 0 1 0 0 0 0.16 0"/>
<feBlend mode="normal" in2="BackgroundImageFix" result="effect1_dropShadow"/>
<feBlend mode="normal" in="SourceGraphic" in2="effect1_dropShadow" result="shape"/>
</filter>
<filter id="filter1_d" x="0" y="0" width="384" height="138" filterUnits="userSpaceOnUse" color-interpolation-filters="sRGB">
<feFlood flood-opacity="0" result="BackgroundImageFix"/>
<feColorMatrix in="SourceAlpha" type="matrix" values="0 0 0 0 0 0 0 0 0 0 0 0 0 0 0 0 0 0 127 0"/>
<feOffset dx="8" dy="8"/>
<feColorMatrix type="matrix" values="0 0 0 0 0.0196078 0 0 0 0 0.333333 0 0 0 0 1 0 0 0 0.16 0"/>
<feBlend mode="normal" in2="BackgroundImageFix" result="effect1_dropShadow"/>
<feBlend mode="normal" in="SourceGraphic" in2="effect1_dropShadow" result="shape"/>
</filter>
</defs>
</svg>
